<?xml version="1.0" encoding="UTF-8"?>
<!DOCTYPE svg PUBLIC "-//W3C//DTD SVG 1.1//EN" "http://www.w3.org/Graphics/SVG/1.1/DTD/svg11.dtd">
<svg xmlns="http://www.w3.org/2000/svg" version="1.1" width="500px" height="320px" style="shape-rendering:geometricPrecision; text-rendering:geometricPrecision; image-rendering:optimizeQuality; fill-rule:evenodd; clip-rule:evenodd" xmlns:xlink="http://www.w3.org/1999/xlink">
<g><path style="opacity:0.952" fill="#bfa06d" d="M 108.5,12.5 C 110.527,12.3379 112.527,12.5045 114.5,13C 130.197,19.1851 145.863,25.3518 161.5,31.5C 138.026,44.9849 115.359,59.6515 93.5,75.5C 79.2212,69.0273 65.2212,62.0273 51.5,54.5C 61.2797,46.4365 71.2797,38.6031 81.5,31C 90.9134,25.3047 99.9134,19.138 108.5,12.5 Z"/></g>
<g><path style="opacity:0.952" fill="#bfa06d" d="M 385.5,12.5 C 387.527,12.3379 389.527,12.5045 391.5,13C 411.247,25.8669 430.247,39.7003 448.5,54.5C 434.779,62.0273 420.779,69.0273 406.5,75.5C 384.641,59.6515 361.974,44.9849 338.5,31.5C 339.025,30.8076 339.692,30.3076 340.5,30C 355.875,24.8252 370.875,18.9919 385.5,12.5 Z"/></g>
<g><path style="opacity:0.959" fill="#bfa06d" d="M 171.5,34.5 C 193.386,41.9636 215.052,50.1303 236.5,59C 237.833,59.6667 237.833,60.3333 236.5,61C 209.769,73.7773 183.935,87.9439 159,103.5C 140.526,95.344 122.026,87.344 103.5,79.5C 103.281,78.325 103.614,77.325 104.5,76.5C 126.056,61.2241 148.389,47.2241 171.5,34.5 Z"/></g>
<g><path style="opacity:0.959" fill="#bfa06d" d="M 324.5,34.5 C 328.781,35.1361 332.781,36.6361 336.5,39C 356.843,50.501 376.51,63.001 395.5,76.5C 396.386,77.325 396.719,78.325 396.5,79.5C 377.974,87.344 359.474,95.344 341,103.5C 316.065,87.9439 290.231,73.7773 263.5,61C 262.167,60.3333 262.167,59.6667 263.5,59C 283.973,50.9044 304.306,42.7378 324.5,34.5 Z"/></g>
<g><path style="opacity:0.967" fill="#1c3664" d="M 248.5,65.5 C 262.16,70.8283 275.494,76.995 288.5,84C 302.831,91.8298 316.831,100.163 330.5,109C 303.306,122.18 276.473,136.013 250,150.5C 223.527,136.013 196.694,122.18 169.5,109C 194.963,92.9346 221.297,78.4346 248.5,65.5 Z"/></g>
<g><path style="opacity:0.96" fill="#bfa06d" d="M 88.5,87.5 C 89.8734,87.3433 91.2068,87.51 92.5,88C 100.712,92.2726 109.045,96.2726 117.5,100C 126.187,104.007 134.52,108.507 142.5,113.5C 117.028,131.959 92.6943,151.959 69.5,173.5C 55.3193,162.909 41.3193,152.075 27.5,141C 46.8413,121.812 67.1746,103.978 88.5,87.5 Z"/></g>
<g><path style="opacity:0.96" fill="#bfa06d" d="M 407.5,87.5 C 409.655,87.372 411.655,87.872 413.5,89C 434.057,105.217 453.724,122.551 472.5,141C 458.681,152.075 444.681,162.909 430.5,173.5C 407.306,151.959 382.972,131.959 357.5,113.5C 373.91,104.295 390.577,95.6285 407.5,87.5 Z"/></g>
<g><path style="opacity:0.971" fill="#1c3664" d="M 154.5,117.5 C 167.267,123.383 179.934,129.55 192.5,136C 206.328,143.413 219.995,151.08 233.5,159C 200.608,179.402 169.275,201.902 139.5,226.5C 118.907,211.249 98.5735,195.582 78.5,179.5C 102.401,156.918 127.734,136.251 154.5,117.5 Z"/></g>
<g><path style="opacity:0.971" fill="#1c3664" d="M 343.5,117.5 C 371.503,135.487 397.503,156.153 421.5,179.5C 401.426,195.582 381.093,211.249 360.5,226.5C 330.725,201.902 299.392,179.402 266.5,159C 273.573,154.268 280.906,149.935 288.5,146C 306.895,136.47 325.228,126.97 343.5,117.5 Z"/></g>
<g><path style="opacity:0.969" fill="#1c3664" d="M 64.5,191.5 C 65.552,191.351 66.552,191.517 67.5,192C 86.3396,208.009 105.006,224.176 123.5,240.5C 100.782,261.385 78.9489,283.051 58,305.5C 52.0123,300.846 46.679,295.512 42,289.5C 32.7081,277.873 23.0415,266.539 13,255.5C 11,253.167 11,250.833 13,248.5C 29.2642,228.733 46.4309,209.733 64.5,191.5 Z"/></g>
<g><path style="opacity:0.969" fill="#1c3664" d="M 432.5,191.5 C 433.552,191.351 434.552,191.517 435.5,192C 455.039,210.527 472.706,230.527 488.5,252C 488.138,253.225 487.638,254.391 487,255.5C 476.959,266.539 467.292,277.873 458,289.5C 453.321,295.512 447.988,300.846 442,305.5C 421.051,283.051 399.218,261.385 376.5,240.5C 395.186,224.144 413.853,207.811 432.5,191.5 Z"/></g>
</svg>
