<?xml version="1.0" ?><svg id="Capa_1" style="enable-background:new 0 0 128 128;" version="1.1" viewBox="0 0 128 128" xml:space="preserve" xmlns="http://www.w3.org/2000/svg" xmlns:xlink="http://www.w3.org/1999/xlink"><style type="text/css">
	.st0{fill:#21A365;}
	.st1{fill:#107C41;}
	.st2{fill:#185B37;}
	.st3{fill:#33C481;}
	.st4{fill:#17864C;}
	.st5{fill:#FFFFFF;}
	.st6{fill:#036C70;}
	.st7{fill:#1A9BA1;}
	.st8{fill:#37C6D0;}
	.st9{fill:#04878B;}
	.st10{fill:#4F59CA;}
	.st11{fill:#7B82EA;}
	.st12{fill:#4C53BB;}
	.st13{fill:#0F78D5;}
	.st14{fill:#29A7EB;}
	.st15{fill:#0358A8;}
	.st16{fill:#0F79D6;}
	.st17{fill:#038387;}
	.st18{fill:#048A8E;}
	.st19{fill:#C8421D;}
	.st20{fill:#FF8F6A;}
	.st21{fill:#ED6B47;}
	.st22{fill:#891323;}
	.st23{fill:#AF2131;}
	.st24{fill:#C94E60;}
	.st25{fill:#E08195;}
	.st26{fill:#B42839;}
	.st27{fill:#0464B8;}
	.st28{fill:#0377D4;}
	.st29{fill:#4FD8FF;}
	.st30{fill:#1681D7;}
	.st31{fill:#0178D4;}
	.st32{fill:#042071;}
	.st33{fill:#168FDE;}
	.st34{fill:#CA64EA;}
	.st35{fill:#7E1FAF;}
	.st36{fill:#AE4BD5;}
	.st37{fill:#9332BF;}
	.st38{fill:#7719AA;}
	.st39{fill:#0078D4;}
	.st40{fill:#1490DF;}
	.st41{fill:#0364B8;}
	.st42{fill:#28A8EA;}
	.st43{fill:#41A5ED;}
	.st44{fill:#2C7BD5;}
	.st45{fill:#195ABE;}
	.st46{fill:#103E91;}
	.st47{fill:#2166C3;}
	.st48{opacity:0.2;}
</style><path class="st22" d="M78.8,96.3c-27,0-48.9-6.5-48.9-14.5v29.8c0,8,21.9,14.5,48.9,14.5s48.9-6.5,48.9-14.5V81.8  C127.7,89.8,105.8,96.3,78.8,96.3z"/><path class="st23" d="M78.8,64.3c-27,0-48.9-6.5-48.9-14.5v32.1c0,8,21.9,14.5,48.9,14.5s48.9-6.5,48.9-14.5V49.7  C127.7,57.8,105.8,64.3,78.8,64.3z"/><path class="st24" d="M78.8,30.8c-27,0-48.9-6.5-48.9-14.5v33.5c0,8,21.9,14.5,48.9,14.5s48.9-6.5,48.9-14.5V16.2  C127.7,24.3,105.8,30.8,78.8,30.8z"/><ellipse class="st25" cx="78.8" cy="16.2" rx="48.9" ry="14.5"/><path class="st26" d="M59.5,96.5h-53c-3.5,0-6.4-2.9-6.4-6.4V37.9c0-3.5,2.9-6.4,6.4-6.4h53c3.5,0,6.4,2.9,6.4,6.4v52.2  C65.9,93.6,63.1,96.5,59.5,96.5z"/><g><path class="st5" d="M28.4,72.2l-3.1,10.2h-6.9l11.7-35.9h8.5l11.8,35.9h-7.1L40,72.2H28.4z M38.8,67.3L36,58.4   c-0.7-2.2-1.3-4.6-1.8-6.7H34c-0.5,2.1-1.1,4.6-1.7,6.7l-2.8,8.8H38.8z"/></g><path class="st48" d="M66,37.3c0,0.2,0,0.4,0,0.6v52.2c0,3.5-2.9,6.4-6.4,6.4H29.8v5.7H65c3.5,0,6.4-2.9,6.4-6.4V43.6  C71.4,40.4,69.1,37.7,66,37.3z"/></svg>