<?xml version="1.0" encoding="UTF-8"?>
<svg version="1.1" xmlns="http://www.w3.org/2000/svg" width="512" height="512">
<path d="M0 0 C2.94846068 0.00314748 5.8959015 -0.02035196 8.84423828 -0.0456543 C22.23420356 -0.09027055 35.14581187 1.11142326 48.34814453 3.31567383 C50.05357422 3.59785767 50.05357422 3.59785767 51.79345703 3.88574219 C54.389253 4.35197518 56.96081163 4.87071381 59.53564453 5.44067383 C60.92456909 5.74763184 60.92456909 5.74763184 62.34155273 6.06079102 C106.79224038 16.39661722 147.52755017 38.70475281 180.34814453 70.31567383 C181.33717773 71.26385986 181.33717773 71.26385986 182.34619141 72.23120117 C191.83444759 81.37564862 200.57434893 90.67301392 208.34814453 101.31567383 C209.20620605 102.46672399 210.06427904 103.6177656 210.92236328 104.76879883 C216.9599185 112.95843364 222.34271755 121.46105658 227.34814453 130.31567383 C227.75033203 131.02288574 228.15251953 131.73009766 228.56689453 132.45874023 C243.28890726 158.60756518 252.984333 187.62675091 257.34814453 217.31567383 C257.52547119 218.51450195 257.70279785 219.71333008 257.88549805 220.94848633 C259.51403069 232.77450824 259.70717177 244.51725907 259.66064453 256.44067383 C259.65848938 257.43490356 259.65633423 258.4291333 259.65411377 259.45349121 C259.60377767 273.92177338 259.30666158 288.10256454 256.34814453 302.31567383 C256.05012939 303.78012939 256.05012939 303.78012939 255.74609375 305.27416992 C245.62429912 353.65407367 223.7077344 397.64122573 189.34814453 433.31567383 C188.71602051 433.9750293 188.08389648 434.63438477 187.43261719 435.3137207 C178.28816974 444.80197688 168.99080444 453.54187823 158.34814453 461.31567383 C157.19709437 462.17373534 156.04605276 463.03180834 154.89501953 463.88989258 C146.70538472 469.92744779 138.20276177 475.31024685 129.34814453 480.31567383 C128.64093262 480.71786133 127.9337207 481.12004883 127.20507812 481.53442383 C104.06968618 494.55984793 78.89852044 503.30868844 52.91064453 508.62817383 C52.19175049 508.77552979 51.47285645 508.92288574 50.73217773 509.07470703 C35.20552361 512.0258259 19.80501045 512.72275371 4.03564453 512.69067383 C2.52136871 512.68985809 2.52136871 512.68985809 0.97650146 512.68902588 C-15.53309086 512.64825984 -31.44967548 511.74096691 -47.65185547 508.31567383 C-48.69374023 508.0960498 -49.735625 507.87642578 -50.80908203 507.65014648 C-97.10234858 497.55252598 -139.51599268 475.19338625 -173.65185547 442.31567383 C-174.31121094 441.6835498 -174.97056641 441.05142578 -175.64990234 440.40014648 C-185.13815852 431.25569904 -193.87805987 421.95833373 -201.65185547 411.31567383 C-202.50991699 410.16462366 -203.36798998 409.01358205 -204.22607422 407.86254883 C-210.26362943 399.67291402 -215.64642849 391.17029107 -220.65185547 382.31567383 C-221.05404297 381.60846191 -221.45623047 380.90125 -221.87060547 380.17260742 C-236.62297084 353.96987095 -246.15821352 325.02936586 -250.65185547 295.31567383 C-250.91675781 293.63199707 -250.91675781 293.63199707 -251.18701172 291.91430664 C-252.84391407 280.3011964 -253.0505906 268.78387438 -253.02685547 257.06567383 C-253.02631165 256.05365906 -253.02576782 255.04164429 -253.02520752 253.9989624 C-252.98447503 237.47036811 -252.08109769 221.53653384 -248.65185547 205.31567383 C-248.43223145 204.27378906 -248.21260742 203.2319043 -247.98632812 202.15844727 C-238.98826478 160.90617949 -220.26766763 122.32955978 -192.65185547 90.31567383 C-192.01763672 89.5705957 -191.38341797 88.82551758 -190.72998047 88.05786133 C-178.91884032 74.5528755 -166.16825319 61.8814864 -151.65185547 51.31567383 C-150.50190716 50.45918317 -149.35216958 49.6024095 -148.20263672 48.74536133 C-140.01096021 42.70473243 -131.49540469 37.34562312 -122.65185547 32.31567383 C-122.02005371 31.95119141 -121.38825195 31.58670898 -120.73730469 31.21118164 C-94.65008278 16.27972298 -65.316926 6.80687182 -35.65185547 2.31567383 C-34.53375488 2.13834717 -33.4156543 1.96102051 -32.26367188 1.77832031 C-21.50231249 0.23401232 -10.86244537 -0.02412288 0 0 Z " fill="#5DBC3E" transform="translate(252.65185546875,-0.315673828125)"/>
<path d="M0 0 C1.02867187 -0.00773438 2.05734375 -0.01546875 3.1171875 -0.0234375 C20.34075298 0.02038837 33.77989615 6.02989615 46 18.25 C46.33 13.3 46.66 8.35 47 3.25 C58.88 3.25 70.76 3.25 83 3.25 C83.09050405 23.982737 83.16410018 44.71531256 83.20724869 65.44819736 C83.22782115 75.07613287 83.25583937 84.70393637 83.30175781 94.33178711 C83.34178913 102.72931463 83.36747139 111.12674649 83.37635398 119.5243668 C83.3815413 123.96553363 83.39362079 128.40642693 83.42292023 132.84750557 C83.45034776 137.03935498 83.45839067 141.23082175 83.45243073 145.42275238 C83.45351888 146.95001502 83.46130849 148.47729231 83.4768219 150.00447655 C83.66102969 169.09708476 78.77902417 185.99582778 65.2265625 200.046875 C64.49179687 200.77390625 63.75703125 201.5009375 63 202.25 C62.40960938 202.87390625 61.81921875 203.4978125 61.2109375 204.140625 C46.39469565 218.63051791 24.22076034 222.69227172 4.40258789 222.61132812 C-15.14501404 222.27789355 -31.36282903 213.38556114 -47 202.25 C-44.51656062 196.44725221 -39.60816124 192.36665112 -35.25 187.9375 C-34.35539062 186.99326172 -33.46078125 186.04902344 -32.5390625 185.07617188 C-31.66507812 184.18865234 -30.79109375 183.30113281 -29.890625 182.38671875 C-29.09688477 181.56905029 -28.30314453 180.75138184 -27.48535156 179.90893555 C-25 178.25 -25 178.25 -21.91357422 178.3918457 C-18.33805813 179.44496612 -15.1463012 180.99827097 -11.875 182.75 C-1.19194693 188.39772869 10.19656043 188.93691125 21.875 185.6875 C31.03969912 182.45089622 39.35854417 177.03113265 44 168.25 C45.80546821 163.13450673 46.22070354 158.71975013 46.125 153.3125 C46.11597656 152.62865234 46.10695313 151.94480469 46.09765625 151.24023438 C46.07438958 149.57666713 46.03853167 147.91328369 46 146.25 C45.28457031 146.83007812 44.56914062 147.41015625 43.83203125 148.0078125 C27.19400857 161.05133352 10.942632 164.99961979 -10 163.25 C-15.30774558 162.35943866 -20.12645797 160.50759668 -25 158.25 C-25.99 157.80398438 -26.98 157.35796875 -28 156.8984375 C-41.85081932 150.01150234 -50.28000543 139.52480762 -55.19140625 125.03515625 C-56.51130949 120.48882288 -57.40144073 115.94365287 -58 111.25 C-58.08757568 110.57340332 -58.17515137 109.89680664 -58.26538086 109.19970703 C-59.26656157 100.15246298 -59.18608263 91.07290812 -59.18530273 81.98242188 C-59.18747909 79.15218831 -59.20565958 76.32235194 -59.22460938 73.4921875 C-59.28777967 53.59300029 -59.06809415 33.80207033 -45 18.25 C-44.45085937 17.57453125 -43.90171875 16.8990625 -43.3359375 16.203125 C-39.20562869 11.5087652 -34.57451387 8.67028267 -29.0625 5.875 C-28.40644775 5.54105225 -27.75039551 5.20710449 -27.07446289 4.86303711 C-18.19933477 0.60249333 -9.75527428 -0.07334793 0 0 Z " fill="#EFEEE9" transform="translate(310,183.75)"/>
<path d="M0 0 C10.11887817 8.26065347 15.54174852 19.37403362 17.40234375 32.16015625 C18.09702249 40.92679023 17.8939226 49.74110591 17.828125 58.52734375 C17.82319386 61.0594151 17.8198997 63.59149012 17.81816101 66.12356567 C17.8105637 71.39676961 17.79067091 76.66976321 17.7590332 81.94287109 C17.71844623 88.71657719 17.70129424 95.4901316 17.69172382 102.26394463 C17.68255797 108.7267671 17.66189942 115.18955152 17.640625 121.65234375 C17.63722925 122.88925838 17.6338335 124.12617302 17.63033485 125.40056992 C17.6188262 128.87370852 17.60032295 132.34673151 17.5793457 135.81982422 C17.5766568 136.85864746 17.5739679 137.8974707 17.57119751 138.96777344 C17.56404221 139.90668427 17.5568869 140.84559509 17.54951477 141.81295776 C17.54524129 142.63322889 17.54096781 143.45350002 17.53656483 144.29862785 C17.40234375 146.16015625 17.40234375 146.16015625 16.40234375 147.16015625 C13.80875053 147.24867154 11.24194684 147.2754157 8.6484375 147.2578125 C7.87299088 147.25639755 7.09754425 147.2549826 6.29859924 147.25352478 C3.81230881 147.2479097 1.32610715 147.23535471 -1.16015625 147.22265625 C-2.84179558 147.21764319 -4.52343631 147.21307995 -6.20507812 147.20898438 C-10.33597191 147.19793538 -14.46679901 147.1806607 -18.59765625 147.16015625 C-18.92765625 142.54015625 -19.25765625 137.92015625 -19.59765625 133.16015625 C-20.46390625 134.17078125 -21.33015625 135.18140625 -22.22265625 136.22265625 C-32.64388044 146.60177448 -48.00958413 150.51912273 -62.30859375 150.5703125 C-63.39398438 150.55871094 -64.479375 150.54710937 -65.59765625 150.53515625 C-66.68304688 150.54675781 -67.7684375 150.55835938 -68.88671875 150.5703125 C-82.81945683 150.52043396 -97.60304203 146.78571284 -108.01171875 136.9609375 C-119.92756583 123.43087469 -121.82608493 107.91398336 -120.82080078 90.57519531 C-119.99804801 81.67074192 -115.84450347 74.44374963 -109.59765625 68.16015625 C-91.68935783 53.9021556 -71.43140601 54.60088332 -49.68530273 54.88549805 C-46.17181117 54.9269976 -42.65819915 54.94480769 -39.14453125 54.96484375 C-32.2952841 55.00727522 -25.44650504 55.07521018 -18.59765625 55.16015625 C-18.67934286 51.97167063 -18.79210699 48.78498638 -18.91015625 45.59765625 C-18.93271484 44.70240234 -18.95527344 43.80714844 -18.97851562 42.88476562 C-19.256978 35.97383578 -20.36359569 31.07120486 -24.66015625 25.47265625 C-36.72831325 15.97219223 -53.12287223 17.29143817 -67.59765625 18.16015625 C-72.21779351 18.78792915 -76.36608332 20.2109919 -80.59765625 22.16015625 C-81.53738281 22.58039063 -82.47710937 23.000625 -83.4453125 23.43359375 C-87.48635115 25.35236031 -91.06951886 27.40004877 -94.59765625 30.16015625 C-98.1652991 28.64639544 -100.43471912 26.55502496 -103.14453125 23.80859375 C-103.98886719 22.9578125 -104.83320312 22.10703125 -105.703125 21.23046875 C-106.57582031 20.34101563 -107.44851562 19.4515625 -108.34765625 18.53515625 C-109.23582031 17.63796875 -110.12398437 16.74078125 -111.0390625 15.81640625 C-113.22982594 13.60208621 -115.41578388 11.3832319 -117.59765625 9.16015625 C-104.85508067 -4.3319826 -87.21542704 -9.19108716 -69.59765625 -12.83984375 C-68.66695312 -13.03320312 -67.73625 -13.2265625 -66.77734375 -13.42578125 C-44.12335789 -16.37580889 -18.96824374 -13.43465083 0 0 Z " fill="#EEEEE9" transform="translate(230.59765625,196.83984375)"/>
<path d="M0 0 C12.01280736 -0.38585034 23.13227255 2.28731051 34.7109375 5.1953125 C36.51064599 12.83526194 38.16450076 20.50011919 39.7109375 28.1953125 C39.88625 29.06043457 40.0615625 29.92555664 40.2421875 30.81689453 C45.55533417 58.52827512 45.49434392 91.57711793 39.7109375 119.1953125 C39.50162598 120.20352051 39.29231445 121.21172852 39.07666016 122.25048828 C36.1683926 135.86562621 32.42732807 149.0998025 27.7109375 162.1953125 C2.88017906 167.58476534 -20.87006799 164.96333536 -42.2890625 151.1953125 C-60.10235532 138.95288553 -68.45124574 120.07998598 -72.6015625 99.4453125 C-76.14876826 74.64865509 -71.84259353 48.11103044 -57.33203125 27.40234375 C-45.72700991 12.24263119 -29.48970261 3.83503341 -10.84375 0.796875 C-7.23721037 0.35647247 -3.6256186 0.21529802 0 0 Z " fill="#EEEEE8" transform="translate(469.2890625,182.8046875)"/>
<path d="M0 0 C1.93359375 1.54296875 1.93359375 1.54296875 3.93359375 4.54296875 C1.21788464 7.43198047 -1.52051129 10.2972646 -4.28173828 13.14282227 C-5.21725922 14.1135022 -6.14639643 15.09037764 -7.06884766 16.07348633 C-8.39734912 17.4870748 -9.75117238 18.87672981 -11.10546875 20.265625 C-11.91193848 21.10875244 -12.7184082 21.95187988 -13.54931641 22.82055664 C-16.06640625 24.54296875 -16.06640625 24.54296875 -19.18188477 24.3918457 C-22.43941191 23.43319806 -25.33051254 22.16424991 -28.37890625 20.66796875 C-40.37175119 14.97205037 -50.49517175 13.33421472 -63.75390625 13.23046875 C-65.57825195 13.18696289 -65.57825195 13.18696289 -67.43945312 13.14257812 C-77.64748282 13.07134657 -87.01587324 14.93740321 -95.06640625 21.54296875 C-97.42796399 24.5485877 -97.49705179 27.81419393 -97.37109375 31.5859375 C-96.85659132 34.89062619 -95.5250615 36.33017902 -93.06640625 38.54296875 C-85.89877425 43.09409792 -77.95789114 44.58816188 -69.62890625 45.54296875 C-68.91718262 45.62708008 -68.20545898 45.71119141 -67.47216797 45.79785156 C-63.00861903 46.30038901 -58.55493841 46.64912776 -54.0703125 46.90234375 C-34.82431993 48.03620927 -14.99215283 50.62906623 -1.12890625 65.48046875 C7.28064178 75.8663614 7.74546785 86.63755333 6.93359375 99.54296875 C4.83354287 113.65654599 -1.79401762 124.01034364 -13.00390625 132.85546875 C-27.98140296 143.35454565 -45.0092052 145.91361137 -62.94165039 145.7487793 C-65.02567561 145.73027546 -67.10925967 145.72827213 -69.19335938 145.72851562 C-80.21881407 145.6881817 -80.21881407 145.6881817 -85.06640625 144.54296875 C-89.31435841 131.63761725 -93.2967407 118.7575912 -95.94140625 105.41796875 C-96.13178467 104.46220947 -96.32216309 103.5064502 -96.51831055 102.52172852 C-97.08227166 99.53474783 -97.58790871 96.54483306 -98.06640625 93.54296875 C-98.34460205 91.80176758 -98.34460205 91.80176758 -98.62841797 90.02539062 C-100.28014588 78.45592806 -100.46291529 66.96652277 -100.44140625 55.29296875 C-100.4415271 54.28328033 -100.44164795 53.27359192 -100.44177246 52.23330688 C-100.41356785 35.64292802 -99.30282233 19.8444951 -96.06640625 3.54296875 C-95.75046452 1.75665835 -95.43531884 -0.02979308 -95.12109375 -1.81640625 C-92.98426509 -12.83429133 -92.98426509 -12.83429133 -89.30859375 -15.328125 C-61.16154132 -25.12872518 -24.02662912 -15.78036015 0 0 Z " fill="#EEEEE8" transform="translate(100.06640625,201.45703125)"/>
<path d="M0 0 C5.27433721 4.30216065 9.20287983 10.63298736 10.5625 17.3125 C10.6662994 18.97461412 10.72065899 20.64017441 10.73950195 22.30541992 C10.75875481 23.79298042 10.75875481 23.79298042 10.77839661 25.31059265 C10.78578354 26.37727676 10.79317047 27.44396088 10.80078125 28.54296875 C10.808853 29.64796219 10.81692474 30.75295563 10.82524109 31.89143372 C10.8390672 34.23074786 10.84979593 36.57008206 10.85766602 38.90942383 C10.87485182 42.46930679 10.91874966 46.02825437 10.96289062 49.58789062 C10.97302054 51.86457653 10.98153571 54.1412703 10.98828125 56.41796875 C11.00578934 57.47453171 11.02329742 58.53109467 11.04133606 59.61967468 C11.01299751 69.37852432 8.13638788 76.41087451 1.47265625 83.52734375 C-6.33242213 90.82166036 -15.96317251 93.94285295 -26.57421875 93.59765625 C-35.21791202 92.73682459 -42.45178782 90.4864971 -49.4375 85.3125 C-50.7678125 84.44625 -50.7678125 84.44625 -52.125 83.5625 C-60.60798981 75.30878018 -61.42268674 64.11822513 -61.67570496 52.83283997 C-61.71293135 49.7399415 -61.71491634 46.64823096 -61.69824219 43.55517578 C-61.68748258 41.18366123 -61.69822172 38.81289858 -61.7109375 36.44140625 C-61.73583201 12.75296803 -61.73583201 12.75296803 -53.4375 3.3125 C-38.71793618 -11.40706382 -16.79015712 -11.16163854 0 0 Z " fill="#5EBC3F" transform="translate(346.4375,221.6875)"/>
<path d="M0 0 C1.93359375 1.54296875 1.93359375 1.54296875 3.93359375 4.54296875 C1.21788464 7.43198047 -1.52051129 10.2972646 -4.28173828 13.14282227 C-5.21725922 14.1135022 -6.14639643 15.09037764 -7.06884766 16.07348633 C-8.39734912 17.4870748 -9.75117238 18.87672981 -11.10546875 20.265625 C-11.91193848 21.10875244 -12.7184082 21.95187988 -13.54931641 22.82055664 C-16.06640625 24.54296875 -16.06640625 24.54296875 -19.18188477 24.3918457 C-22.43941191 23.43319806 -25.33051254 22.16424991 -28.37890625 20.66796875 C-40.37175119 14.97205037 -50.49517175 13.33421472 -63.75390625 13.23046875 C-65.57825195 13.18696289 -65.57825195 13.18696289 -67.43945312 13.14257812 C-77.64748282 13.07134657 -87.01587324 14.93740321 -95.06640625 21.54296875 C-97.21982211 24.61927712 -97.56449598 27.86229341 -98.06640625 31.54296875 C-98.39640625 31.54296875 -98.72640625 31.54296875 -99.06640625 31.54296875 C-99.28162547 24.39620632 -98.48903838 17.76339768 -97.25390625 10.73046875 C-96.97716064 9.14359253 -96.97716064 9.14359253 -96.69482422 7.5246582 C-96.16350561 4.52854748 -95.61644528 1.53568833 -95.06640625 -1.45703125 C-94.87473877 -2.55917969 -94.87473877 -2.55917969 -94.67919922 -3.68359375 C-93.09339785 -12.65826 -93.09339785 -12.65826 -89.25390625 -15.64453125 C-59.48760394 -23.23202007 -25.41826109 -16.69436493 0 0 Z " fill="#EEEEE8" transform="translate(100.06640625,201.45703125)"/>
<path d="M0 0 C5.46352385 4.15520875 8.59298103 6.96490516 10 14 C10 19.94 10 25.88 10 32 C-16.07 32 -42.14 32 -69 32 C-69 20.29826886 -66.98899748 12.60210659 -59 4 C-43.10769219 -11.07274933 -17.83884979 -12.2001329 0 0 Z " fill="#5EBC3F" transform="translate(502,220)"/>
<path d="M0 0 C25.74 0 51.48 0 78 0 C77.67 5.28 77.34 10.56 77 16 C76.95875 18.02125 76.9175 20.0425 76.875 22.125 C76.375 24.72265625 76.375 24.72265625 75 27 C70.21656365 29.90171691 65.35496063 31.45325955 60 33 C58.87271484 33.39638672 58.87271484 33.39638672 57.72265625 33.80078125 C45.77878733 37.64268219 29.67910584 35.51963276 18.5625 30.1875 C9.26713365 25.09951 4.78787614 19.63780034 0.6875 9.875 C0 7 0 7 0 0 Z " fill="#5DBC3E" transform="translate(433,280)"/>
<path d="M0 0 C1.08667969 0.24234375 2.17335937 0.4846875 3.29296875 0.734375 C17.14478872 3.65822258 31.03473074 5.20597268 45.11401367 6.51660156 C63.78631293 8.31099654 63.78631293 8.31099654 70.0625 13.5625 C72.67483801 18.19729325 72.87555493 21.79767363 72 27 C69.38652728 33.17729915 63.94306172 36.34458944 58 39 C50.42632337 41.62264271 43.30185837 42.54881482 35.3125 42.5 C33.75462769 42.49577026 33.75462769 42.49577026 32.1652832 42.49145508 C23.26443944 42.30632193 12.78635907 41.30470046 5.38867188 35.80126953 C3.41221068 33.23756863 3.26536731 30.9863222 2.83203125 27.79296875 C2.66123047 26.56642578 2.49042969 25.33988281 2.31445312 24.07617188 C2.06598633 22.1512793 2.06598633 22.1512793 1.8125 20.1875 C1.63525391 18.91583984 1.45800781 17.64417969 1.27539062 16.33398438 C0.53039641 10.84288804 -0.10316721 5.54955793 0 0 Z " fill="#5DBC3E" transform="translate(0,273)"/>
<path d="M0 0 C1.06064667 0.00007553 2.12129333 0.00015106 3.21408081 0.00022888 C4.9065947 0.00797081 4.9065947 0.00797081 6.63330078 0.01586914 C8.38515182 0.01799156 8.38515182 0.01799156 10.1723938 0.02015686 C13.89116002 0.02574041 17.60986535 0.03828995 21.32861328 0.05102539 C23.85465408 0.05604251 26.38069582 0.06060505 28.90673828 0.06469727 C35.08905061 0.07570446 41.2713276 0.09242626 47.45361328 0.11352539 C47.50795445 2.65548429 47.54744718 5.19626221 47.57861328 7.73852539 C47.59537109 8.45137695 47.61212891 9.16422852 47.62939453 9.89868164 C47.70504338 18.14440595 45.07993585 23.92748782 39.65673828 30.18774414 C37.13345596 32.39337922 35.31581794 33.01666068 32.07861328 33.80102539 C30.70576172 34.14713867 30.70576172 34.14713867 29.30517578 34.50024414 C23.40041587 35.77017196 17.85146428 36.30740215 11.82861328 36.30102539 C10.63981567 36.29981689 10.63981567 36.29981689 9.42700195 36.29858398 C2.95027295 36.23157654 -3.21921135 35.53838535 -9.54638672 34.11352539 C-10.82513672 33.84540039 -12.10388672 33.57727539 -13.42138672 33.30102539 C-17.97303186 31.57140024 -21.46533981 29.30135843 -23.69482422 24.78930664 C-25.40206527 19.42481066 -25.30644292 13.6108529 -23.67138672 8.23852539 C-17.25723585 1.82437453 -8.7988685 -0.02104992 0 0 Z " fill="#5EBC3F" transform="translate(164.54638671875,279.886474609375)"/>
<path d="M0 0 C0.33 0 0.66 0 1 0 C2.08360869 6.06820868 1.79074734 10.10106757 0 16 C-0.33 16 -0.66 16 -1 16 C-1.11138159 10.54230189 -0.91657981 5.38490641 0 0 Z " fill="#C1DEB3" transform="translate(2,217)"/>
</svg>
