<?xml version="1.0" encoding="UTF-8"?>
<svg version="1.1" xmlns="http://www.w3.org/2000/svg" width="216" height="216">
<path d="M0 0 C71.28 0 142.56 0 216 0 C216 71.28 216 142.56 216 216 C144.72 216 73.44 216 0 216 C0 144.72 0 73.44 0 0 Z " fill="#FEFEFE" transform="translate(0,0)"/>
<path d="M0 0 C14.01610902 11.73492696 23.01424134 24.72241885 28.81640625 42.09814453 C29.28686758 43.47674492 29.78918561 44.84472976 30.31640625 46.20263672 C32.52515801 52.11837529 32.96684311 57.42804037 32.87109375 63.71484375 C32.86166748 64.6783374 32.85224121 65.64183105 32.8425293 66.63452148 C32.33261295 90.99877163 22.43406881 113.48017584 5.0078125 130.5234375 C-13.4293743 146.66646752 -37.29595222 153.57533184 -61.50390625 152.08984375 C-82.09771986 149.49361511 -98.89708442 140.49435502 -113.50390625 126.08984375 C-114.24898437 125.35765625 -114.9940625 124.62546875 -115.76171875 123.87109375 C-125.13199687 114.02311517 -130.54483365 101.94183321 -134.50390625 89.08984375 C-134.82359375 88.13980469 -135.14328125 87.18976563 -135.47265625 86.2109375 C-141.55037065 65.98002706 -136.48337366 43.30249744 -126.875 24.984375 C-122.83352644 18.33610411 -117.86326623 12.70027284 -112.50390625 7.08984375 C-111.96378906 6.47496094 -111.42367187 5.86007813 -110.8671875 5.2265625 C-101.4357901 -5.1075883 -88.60285393 -10.81139818 -75.50390625 -14.91015625 C-74.44816406 -15.25046875 -73.39242187 -15.59078125 -72.3046875 -15.94140625 C-47.32929267 -22.84881378 -20.41582129 -15.18276086 0 0 Z " fill="#FC4508" transform="translate(160.50390625,40.91015625)"/>
<path d="M0 0 C3.51344336 2.83027382 5.02101637 5.2750385 5.6875 9.75 C5.00210334 14.54777664 2.62940499 17.62467903 -1 20.75 C-3.11097869 22.83360109 -3.11097869 22.83360109 -3.0625 26.5 C-3.11997745 29.65504513 -3.11997745 29.65504513 -1.75 30.8125 C3.92692621 30.74130627 6.52910562 29.20465516 10.33633423 25.32899475 C11.21012222 24.39463844 11.21012222 24.39463844 12.1015625 23.44140625 C12.7234848 22.80387924 13.3454071 22.16635223 13.98617554 21.50950623 C15.9639801 19.47845607 17.92050566 17.42847133 19.875 15.375 C21.83913156 13.32782611 23.80754994 11.28527884 25.7852478 9.25120544 C27.01254099 7.98734165 28.23172755 6.71554091 29.44155884 5.43495178 C33.76823529 0.95625444 36.88510111 -0.88719538 43.1875 -1.6875 C46.47592666 -1.58785071 48.22190373 -0.86860439 50.6875 1.3125 C53.22295141 4.2577915 54.10929825 6.88012362 54.6328125 10.6875 C53.52526532 16.83551701 47.83054542 21.421249 43.515625 25.53125 C42.2064634 26.80540639 40.89788668 28.08016396 39.58984375 29.35546875 C37.53969129 31.34354017 35.48529733 33.32654676 33.42041016 35.29931641 C31.41776493 37.21734951 29.4344665 39.15375069 27.453125 41.09375 C26.83133362 41.67829956 26.20954224 42.26284912 25.56890869 42.8651123 C22.01197747 46.37489269 22.01197747 46.37489269 20.79980469 51.16992188 C20.97366656 53.72893667 20.97366656 53.72893667 22.25 54.8125 C26.53809423 55.31663725 28.5690757 55.30758997 32.11250305 52.73121643 C33.07152606 51.76510721 34.01134236 50.77968673 34.93481445 49.77954102 C35.71692291 48.97728088 35.71692291 48.97728088 36.51483154 48.15881348 C37.64116833 46.9992311 38.75938985 45.8317222 39.87023354 44.65728951 C41.63315043 42.79542183 43.41813615 40.9575276 45.21073914 39.12425232 C49.6585653 34.56704654 54.0714917 29.97664207 58.47546387 25.3770752 C62.19762312 21.48996339 65.93712049 17.62140853 69.70378685 13.77738762 C71.4582126 11.97234246 73.184216 10.14289404 74.91096497 8.31141663 C83.69215749 -0.78249915 83.69215749 -0.78249915 89.86401367 -1.51977539 C94.83436163 -1.50155628 97.4351303 0.18537544 101.0625 3.4375 C102.99557545 7.3036509 103.10879475 10.60167086 102.25 14.8125 C101.06654358 16.60916138 101.06654358 16.60916138 99.43774414 18.36767578 C98.48075119 19.40580414 98.48075119 19.40580414 97.50442505 20.46490479 C92.91569019 25.24328143 88.29074141 29.98050967 83.62109375 34.6796875 C83.07234148 35.2325153 82.52358921 35.78534309 81.95820808 36.35492325 C79.06238711 39.27144195 76.16341884 42.18479077 73.26196289 45.09570312 C70.27553959 48.09325989 67.30099474 51.10233036 64.32882595 54.11401176 C62.02859251 56.44038842 59.71951863 58.75783635 57.40797615 61.07297134 C56.3070327 62.17877317 55.20945818 63.28794018 54.11541557 64.40056992 C52.58680636 65.95355964 51.04601452 67.49340115 49.50170898 69.03076172 C48.63013657 69.90820038 47.75856415 70.78563904 46.86058044 71.68966675 C41.52045168 76.03207379 35.85061107 76.36562383 29.25 75.8125 C21.07350356 74.06039362 16.48928824 65.84723884 12.25 59.3125 C6.33154434 50.23158646 0.48168477 44.84531254 -8.66796875 38.9296875 C-21.4559464 30.14504379 -21.4559464 30.14504379 -23.75 23.8125 C-24.4132436 18.70706671 -24.43447708 14.23621233 -22.1875 9.5625 C-9.91623086 -4.28200878 -9.91623086 -4.28200878 0 0 Z " fill="#FEFBFA" transform="translate(68.75,82.1875)"/>
</svg>
